<svg xmlns="http://www.w3.org/2000/svg" width="31.837" height="26" viewBox="0 0 31.837 26">
  <path id="folder" d="M30.5,13.99H28.653V10.664a1.451,1.451,0,0,0-1.45-1.45H14.069L11.416,5.5H1.45A1.452,1.452,0,0,0,0,6.95V30.13H0A1.355,1.355,0,0,0,1.361,31.5h23.75a1.347,1.347,0,0,0,1.3-.962l5.426-14.877v-.094A1.421,1.421,0,0,0,30.5,13.99ZM1.061,6.95a.389.389,0,0,1,.388-.388h9.42l2.653,3.714H27.2a.389.389,0,0,1,.388.388V13.99H6.755a1.36,1.36,0,0,0-1.3.961L1.061,26.936ZM25.4,30.218a.3.3,0,0,1-.289.221H1.361a.293.293,0,0,1-.238-.118.287.287,0,0,1-.065-.216L6.466,15.272a.3.3,0,0,1,.289-.221H30.5c.2,0,.253.29.266.435Z" transform="translate(0 -5.5)" fill="#fff"/>
</svg>
