<svg id="instagram" xmlns="http://www.w3.org/2000/svg" width="72.201" height="72.201" viewBox="0 0 72.201 72.201">
  <path id="Path_4" data-name="Path 4" d="M61.625,0H10.576A10.589,10.589,0,0,0,0,10.576V61.625A10.589,10.589,0,0,0,10.576,72.2H61.625A10.589,10.589,0,0,0,72.2,61.625V10.576A10.589,10.589,0,0,0,61.625,0ZM36.242,55A19.037,19.037,0,1,1,55.279,35.959,19.059,19.059,0,0,1,36.242,55ZM57.394,21.153a6.346,6.346,0,1,1,6.346-6.346A6.353,6.353,0,0,1,57.394,21.153Zm0,0" fill="#9b8ccc"/>
  <path id="Path_5" data-name="Path 5" d="M394.1,90a2.1,2.1,0,1,0,2.1,2.1A2.1,2.1,0,0,0,394.1,90Zm0,0" transform="translate(-336.697 -77.303)" fill="#9b8ccc"/>
  <path id="Path_6" data-name="Path 6" d="M166.7,150a14.7,14.7,0,1,0,14.7,14.7A14.721,14.721,0,0,0,166.7,150Zm0,0" transform="translate(-130.461 -128.744)" fill="#9b8ccc"/>
</svg>
