<svg xmlns="http://www.w3.org/2000/svg" width="72.201" height="72.201" viewBox="0 0 72.201 72.201">
  <path id="twitter" d="M26.936,72.2a50.973,50.973,0,0,1-9.569-.928c-5.694-1.092-11.458-4.731-13.089-5.821L0,62.6l4.632-1.861a125.532,125.532,0,0,0,11.955-5.272C12.769,53.2,9.827,49.14,8.411,43.888l-1.077-4,.884.165a19.445,19.445,0,0,1-2.012-3.031A21.754,21.754,0,0,1,3.621,25.96l.2-3.488,1.709.809a22.5,22.5,0,0,1-1.548-5.3A24.129,24.129,0,0,1,5.744,4.391l1.489-3.34L9.224,3.974C15.522,13.218,23.5,18.7,32.966,20.306a20.935,20.935,0,0,1,.862-9.217,16.707,16.707,0,0,1,5.743-8.045,14.853,14.853,0,0,1,10.011-3A14.638,14.638,0,0,1,59.41,4.993a29.036,29.036,0,0,0,3.6-1.467c.789-.363,1.683-.775,2.8-1.246L69.935.543,67.245,9.93c.177-.018.36-.034.551-.044l4.4-.244L69.6,13.99c-.149.249-.187.32-.24.417-.21.386-.471.867-4.044,6.7a9.578,9.578,0,0,0-1.258,5.355A61.1,61.1,0,0,1,61.793,46.83a37.279,37.279,0,0,1-7.92,14.335A32.913,32.913,0,0,1,37.292,70.96,42.129,42.129,0,0,1,26.936,72.2Zm0,0" transform="translate(0 0)" fill="#9b8ccc"/>
</svg>
